<svg preserveAspectRatio="none" width="100%" height="100%" overflow="visible" style="display: block;" viewBox="0 0 1307 436.234" fill="none" xmlns="http://www.w3.org/2000/svg">
<g id="Group 39">
<path id="Rectangle 11" d="M387.995 343.902C388.109 360.922 375.793 375.481 358.991 378.191L195.431 404.576L42.6009 429.23C21.6993 432.602 2.71959 416.526 2.60673 395.354L0.700499 37.5352C0.594091 17.5321 17.4665 1.63177 37.428 2.92383L353.817 23.4033C371.879 24.5725 385.968 39.5019 386.088 57.6016L387.995 343.902Z" fill="var(--fill-0, #EF151A)" fill-opacity="0.05" stroke="var(--stroke-0, #EF151A)"/>
<path id="Rectangle 13" opacity="0.2" d="M919.004 343.903C918.89 360.922 931.206 375.481 948.009 378.192L1111.57 404.576L1264.4 429.231C1285.3 432.602 1304.28 416.526 1304.39 395.355L1306.3 37.5353C1306.4 17.5323 1289.53 1.63194 1269.57 2.924L953.182 23.4035C935.12 24.5727 921.032 39.5021 920.911 57.6018L919.004 343.903Z" stroke="var(--stroke-0, white)"/>
<rect id="Rectangle 22" opacity="0.2" x="455.5" y="0.500068" width="395" height="395" rx="35.9737" stroke="var(--stroke-0, white)"/>
</g>
</svg>
