<svg preserveAspectRatio="none" width="100%" height="100%" overflow="visible" style="display: block;" viewBox="0 0 1306 372" fill="none" xmlns="http://www.w3.org/2000/svg">
<g id="Group 39">
<path id="Rectangle 11" d="M388.254 282.012C388.392 299.387 375.587 314.154 358.366 316.477L195.597 338.43L41.6836 359.187C21.0724 361.967 2.7058 346.014 2.57323 325.217L0.737303 37.1777C0.610753 17.3049 17.2564 1.43489 37.1006 2.50878L353.801 19.6475C371.997 20.6322 386.29 35.5996 386.436 53.8223L388.254 282.012Z" fill="var(--fill-0, #EF151A)" fill-opacity="0.05" stroke="var(--stroke-0, #EF151A)"/>
<path id="Rectangle 13" opacity="0.2" d="M917.746 289.012C917.608 306.387 930.413 321.154 947.634 323.477L1110.4 345.43L1264.32 366.187C1284.93 368.967 1303.29 353.014 1303.43 332.217L1305.26 44.1777C1305.39 24.3049 1288.74 8.43489 1268.9 9.50878L952.199 26.6475C934.003 27.6322 919.71 42.5996 919.564 60.8223L917.746 289.012Z" stroke="var(--stroke-0, #182954)"/>
<rect id="Rectangle 22" opacity="0.2" x="454.5" y="7.5" width="395" height="330" rx="35.9737" stroke="var(--stroke-0, #182954)"/>
</g>
</svg>
