<svg preserveAspectRatio="none" width="100%" height="100%" overflow="visible" style="display: block;" viewBox="0 0 150 58" fill="none" xmlns="http://www.w3.org/2000/svg">
<g id="logo">
<path id="Vector" d="M12.9071 19.4937H18.774V38.3743H12.9071V31.014H5.86687V38.3743H0V19.4937H5.86687V26.8539H12.9071V19.4937Z" fill="var(--fill-0, #F8C617)"/>
<path id="Vector_2" d="M23.4678 19.4937H29.548V38.3743H23.4678V19.4937Z" fill="var(--fill-0, #F8C617)"/>
<path id="Vector_3" d="M51.522 25.0405H45.6552V23.7605C45.6552 23.3338 45.5485 23.1204 45.4418 23.0138C45.3352 22.9071 45.0152 22.8004 44.6951 22.8004H40.9617C40.535 22.8004 40.3217 22.9071 40.215 23.0138C40.1084 23.1204 40.0017 23.3338 40.0017 23.7605V34.3209C40.0017 34.7475 40.1084 34.9608 40.215 35.0675C40.3217 35.1742 40.535 35.2809 40.9617 35.2809H44.6951C45.1219 35.2809 45.3352 35.1742 45.4418 35.0675C45.5485 34.9608 45.6552 34.7475 45.6552 34.3209V31.1207H42.5617V26.9606H51.522V36.0275C51.522 37.6276 50.6687 38.481 49.0686 38.481H36.5882C34.9882 38.481 34.1348 37.7343 34.1348 36.0275V21.9471C34.1348 20.347 34.8815 19.4937 36.5882 19.4937H49.1753C50.7754 19.4937 51.6288 20.347 51.6288 21.9471V25.0405H51.522Z" fill="var(--fill-0, #F8C617)"/>
<path id="Vector_4" d="M69.0164 19.4937H74.8833V38.3743H69.0164V31.014H61.9762V38.3743H56.1094V19.4937H61.9762V26.8539H69.0164V19.4937Z" fill="var(--fill-0, #F8C617)"/>
<path id="Vector_5" d="M105.071 19.4937H110.724L104.643 38.3743H97.8165L94.1901 25.4672L90.5634 38.3743H83.7365L77.6562 19.4937H83.6298L87.1499 33.1474L90.7767 19.4937H97.4966L101.124 33.1474L105.071 19.4937Z" fill="var(--fill-0, #F8C617)"/>
<path id="Vector_6" d="M125.337 38.481L124.271 35.0675L116.377 34.9608L115.203 38.3743H109.55L116.697 19.4937H123.951L131.204 38.3743H125.337V38.481ZM117.657 30.8007H122.777L120.217 23.0138L117.657 30.8007Z" fill="var(--fill-0, #F8C617)"/>
<path id="Vector_7" d="M142.299 38.4808H136.432V32.294L128.752 19.6002H134.512L139.313 29.0939L143.899 19.6002H149.659L142.299 32.294V38.4808Z" fill="var(--fill-0, #F8C617)"/>
</g>
</svg>
